# xmcd
#
# Track frame offsets:
#	150
#	17992
#	39699
#	57633
#	88875
#	93835
#	108602
#	114016
#	151030
#	164196
#	183835
#	191550
#	222141
#	239686
#	243211
#	266376
#
# Disc length: 3738 seconds
# Revision: 0
# Processed by: cddbd v1.5.2PL0 Copyright (c) Steve Scherf et al.
# Submitted via: dBpowerAMP V12.0
#
DISCID=d90e9810
DTITLE=Elmore James Jr. - Old School Lover
DYEAR=2012
DGENRE=Blues Chicago
TTITLE0=What's Wrong
TTITLE1=3rd Degree
TTITLE2=She Put Me To The Test
TTITLE3=Blues Is Gone
TTITLE4=Studiotalk 1
TTITLE5=Greenville Smokin'
TTITLE6=Studiotalk 2
TTITLE7=Old School Lover
TTITLE8=Use The One
TTITLE9=No One To Love Me
TTITLE10=Studiotalk 3
TTITLE11=Steppin' With Elmo Pt. 2
TTITLE12=When My First Wife Left Me
TTITLE13=Studiotalk 4
TTITLE14=Goin' Home
TTITLE15=Just Talked To My Baby
EXTD=
EXTT0=
EXTT1=
EXTT2=
EXTT3=
EXTT4=
EXTT5=
EXTT6=
EXTT7=
EXTT8=
EXTT9=
EXTT10=
EXTT11=
EXTT12=
EXTT13=
EXTT14=
EXTT15=
PLAYORDER=
